<svg width="512" height="512" viewBox="0 0 512 512" fill="none" xmlns="http://www.w3.org/2000/svg">
<path d="M512 256C512 397.385 397.385 512 256 512C114.615 512 0 397.385 0 256C0 114.615 114.615 0 256 0C397.385 0 512 114.615 512 256ZM25.6 256C25.6 383.246 128.754 486.4 256 486.4C383.246 486.4 486.4 383.246 486.4 256C486.4 128.754 383.246 25.6 256 25.6C128.754 25.6 25.6 128.754 25.6 256Z" fill="#4299E1"/>
<rect x="107.508" y="390.35" width="400" height="20" transform="rotate(-45 107.508 390.35)" fill="#4299E1"/>
<path d="M138.28 174.72C135.4 173.44 133 172.6 131.08 172.2C129.24 171.72 127.44 171.48 125.68 171.48C123.44 171.48 121.08 172.16 118.6 173.52C116.12 174.88 113.92 176.56 112 178.56V169.2C115.84 164.96 120.64 162.84 126.4 162.84C128.72 162.84 131 163.08 133.24 163.56C135.56 164.04 138.56 165.08 142.24 166.68C145.12 167.96 147.48 168.84 149.32 169.32C151.24 169.72 153.04 169.92 154.72 169.92C157.04 169.92 159.44 169.24 161.92 167.88C164.4 166.52 166.6 164.84 168.52 162.84V172.08C164.6 176.4 159.8 178.56 154.12 178.56C151.88 178.56 149.56 178.32 147.16 177.84C144.84 177.28 141.88 176.24 138.28 174.72ZM215.472 147.48C223.392 147.48 229.752 150.24 234.552 155.76C239.432 161.28 241.872 169.6 241.872 180.72C241.872 191.68 239.432 200 234.552 205.68C229.752 211.36 223.352 214.2 215.352 214.2C210.392 214.2 206.272 213.28 202.992 211.44C199.792 209.52 197.272 207.32 195.432 204.84H194.712C194.872 206.2 195.032 207.92 195.192 210C195.352 212.08 195.432 213.88 195.432 215.4V241.8H184.872V148.68H193.512L194.952 157.44H195.432C197.352 154.64 199.872 152.28 202.992 150.36C206.112 148.44 210.272 147.48 215.472 147.48ZM213.552 156.36C206.992 156.36 202.352 158.2 199.632 161.88C196.992 165.56 195.592 171.16 195.432 178.68V180.72C195.432 188.64 196.712 194.76 199.272 199.08C201.912 203.32 206.752 205.44 213.792 205.44C217.712 205.44 220.912 204.36 223.392 202.2C225.952 200.04 227.832 197.12 229.032 193.44C230.312 189.68 230.952 185.4 230.952 180.6C230.952 173.24 229.512 167.36 226.632 162.96C223.832 158.56 219.472 156.36 213.552 156.36Z" fill="#4299E1"/>
<path d="M281.44 330.12L259.24 298.68H271.24L287.8 322.92L304.24 298.68H316.12L293.92 330.12L317.32 363H305.32L287.8 337.32L270.04 363H258.16L281.44 330.12ZM319.636 298.68H330.916L344.836 335.28C346.036 338.48 347.116 341.56 348.076 344.52C349.036 347.4 349.756 350.16 350.236 352.8H350.716C351.196 350.8 351.956 348.2 352.996 345C354.036 341.72 355.116 338.44 356.236 335.16L369.316 298.68H380.716L352.996 371.88C350.756 377.96 347.836 382.8 344.236 386.4C340.716 390 335.836 391.8 329.596 391.8C327.676 391.8 325.996 391.68 324.556 391.44C323.116 391.28 321.876 391.08 320.836 390.84V382.44C321.716 382.6 322.756 382.76 323.956 382.92C325.236 383.08 326.556 383.16 327.916 383.16C331.596 383.16 334.556 382.12 336.796 380.04C339.116 377.96 340.916 375.2 342.196 371.76L345.556 363.24L319.636 298.68Z" fill="#4299E1"/>
</svg>
