<svg width="1969" height="500" viewBox="0 0 1969 500" fill="none" xmlns="http://www.w3.org/2000/svg">
<path d="M500 250C500 388.071 388.071 500 250 500C111.929 500 0 388.071 0 250C0 111.929 111.929 0 250 0C388.071 0 500 111.929 500 250ZM25 250C25 374.264 125.736 475 250 475C374.264 475 475 374.264 475 250C475 125.736 374.264 25 250 25C125.736 25 25 125.736 25 250Z" fill="#3182CE"/>
<rect x="101.508" y="384.35" width="400" height="20" transform="rotate(-45 101.508 384.35)" fill="#3182CE"/>
<path d="M119.805 165.223C117.734 165.223 115.449 165.887 112.949 167.215C110.488 168.504 108.203 170.203 106.094 172.312V163.465C110 159.207 114.766 157.078 120.391 157.078C123.047 157.078 125.469 157.352 127.656 157.898C129.883 158.445 132.734 159.461 136.211 160.945C138.789 162.039 141.035 162.859 142.949 163.406C144.863 163.914 146.738 164.168 148.574 164.168C150.684 164.168 152.988 163.543 155.488 162.293C157.988 161.043 160.293 159.305 162.402 157.078V165.867C158.418 170.164 153.652 172.312 148.105 172.312C145.293 172.312 142.656 172 140.195 171.375C137.734 170.711 135.098 169.754 132.285 168.504C129.355 167.254 127.012 166.395 125.254 165.926C123.496 165.457 121.68 165.223 119.805 165.223ZM208.867 208.172C204.688 208.172 200.859 207.41 197.383 205.887C193.945 204.324 191.055 201.941 188.711 198.738H188.008C188.477 202.488 188.711 206.043 188.711 209.402V235.828H178.984V142.781H186.895L188.242 151.57H188.711C191.211 148.055 194.121 145.516 197.441 143.953C200.762 142.391 204.57 141.609 208.867 141.609C217.383 141.609 223.945 144.52 228.555 150.34C233.203 156.16 235.527 164.324 235.527 174.832C235.527 185.379 233.164 193.582 228.438 199.441C223.75 205.262 217.227 208.172 208.867 208.172ZM207.461 149.871C200.898 149.871 196.152 151.688 193.223 155.32C190.293 158.953 188.789 164.734 188.711 172.664V174.832C188.711 183.855 190.215 190.32 193.223 194.227C196.23 198.094 201.055 200.027 207.695 200.027C213.242 200.027 217.578 197.781 220.703 193.289C223.867 188.797 225.449 182.605 225.449 174.715C225.449 166.707 223.867 160.574 220.703 156.316C217.578 152.02 213.164 149.871 207.461 149.871Z" fill="#3182CE"/>
<path d="M275.781 324.129L253.457 292.781H264.531L281.465 317.391L298.34 292.781H309.297L286.973 324.129L310.469 357H299.453L281.465 330.984L263.301 357H252.285L275.781 324.129ZM313.047 292.781H323.477L337.539 329.402C340.625 337.762 342.539 343.797 343.281 347.508H343.75C344.258 345.516 345.312 342.117 346.914 337.312C348.555 332.469 353.867 317.625 362.852 292.781H373.281L345.684 365.906C342.949 373.133 339.746 378.25 336.074 381.258C332.441 384.305 327.969 385.828 322.656 385.828C319.688 385.828 316.758 385.496 313.867 384.832V377.039C316.016 377.508 318.418 377.742 321.074 377.742C327.754 377.742 332.52 373.992 335.371 366.492L338.945 357.352L313.047 292.781Z" fill="#3182CE"/>
<path d="M752.344 302.461C752.344 327.852 743.164 347.773 724.805 362.227C706.445 376.68 681.12 383.906 648.828 383.906C616.536 383.906 590.104 378.893 569.531 368.867V324.727C582.552 330.846 596.354 335.664 610.938 339.18C625.651 342.695 639.323 344.453 651.953 344.453C670.443 344.453 684.049 340.938 692.773 333.906C701.628 326.875 706.055 317.435 706.055 305.586C706.055 294.909 702.018 285.859 693.945 278.438C685.872 271.016 669.206 262.227 643.945 252.07C617.904 241.523 599.544 229.479 588.867 215.938C578.19 202.396 572.852 186.12 572.852 167.109C572.852 143.281 581.315 124.531 598.242 110.859C615.169 97.1875 637.891 90.3516 666.406 90.3516C693.75 90.3516 720.964 96.3411 748.047 108.32L733.203 146.406C707.812 135.729 685.156 130.391 665.234 130.391C650.13 130.391 638.672 133.711 630.859 140.352C623.047 146.862 619.141 155.521 619.141 166.328C619.141 173.75 620.703 180.13 623.828 185.469C626.953 190.677 632.096 195.625 639.258 200.312C646.419 205 659.31 211.185 677.93 218.867C698.893 227.591 714.258 235.729 724.023 243.281C733.789 250.833 740.951 259.362 745.508 268.867C750.065 278.372 752.344 289.57 752.344 302.461ZM994.336 271.602C994.336 306.888 985.286 334.427 967.188 354.219C949.089 374.01 923.893 383.906 891.602 383.906C871.419 383.906 853.581 379.349 838.086 370.234C822.591 361.12 810.677 348.034 802.344 330.977C794.01 313.919 789.844 294.128 789.844 271.602C789.844 236.576 798.828 209.232 816.797 189.57C834.766 169.909 860.091 160.078 892.773 160.078C924.023 160.078 948.763 170.169 966.992 190.352C985.221 210.404 994.336 237.487 994.336 271.602ZM837.109 271.602C837.109 321.471 855.534 346.406 892.383 346.406C928.841 346.406 947.07 321.471 947.07 271.602C947.07 222.253 928.711 197.578 891.992 197.578C872.721 197.578 858.724 203.958 850 216.719C841.406 229.479 837.109 247.773 837.109 271.602ZM1093.16 380H1047.27V76.0938H1093.16V380ZM1389.06 380H1342.19V251.289H1210.55V380H1163.87V94.4531H1210.55V211.25H1342.19V94.4531H1389.06V380ZM1717.77 236.836C1717.77 283.32 1706.12 319.453 1682.81 345.234C1659.64 371.016 1626.76 383.906 1584.18 383.906C1541.08 383.906 1507.94 371.146 1484.77 345.625C1461.72 319.974 1450.2 283.581 1450.2 236.445C1450.2 189.31 1461.78 153.112 1484.96 127.852C1508.27 102.591 1541.47 89.9609 1584.57 89.9609C1627.02 89.9609 1659.83 102.786 1683.01 128.438C1706.18 154.089 1717.77 190.221 1717.77 236.836ZM1499.8 236.836C1499.8 271.992 1506.9 298.685 1521.09 316.914C1535.29 335.013 1556.32 344.062 1584.18 344.062C1611.91 344.062 1632.81 335.078 1646.88 317.109C1661.07 299.141 1668.16 272.383 1668.16 236.836C1668.16 201.81 1661.13 175.247 1647.07 157.148C1633.14 139.049 1612.3 130 1584.57 130C1556.58 130 1535.42 139.049 1521.09 157.148C1506.9 175.247 1499.8 201.81 1499.8 236.836ZM1968.16 180.781C1968.16 210.599 1958.4 233.451 1938.87 249.336C1919.34 265.221 1891.54 273.164 1855.47 273.164H1825.78V380H1779.1V94.4531H1861.33C1897.01 94.4531 1923.7 101.745 1941.41 116.328C1959.24 130.911 1968.16 152.396 1968.16 180.781ZM1825.78 233.906H1850.59C1874.54 233.906 1892.12 229.74 1903.32 221.406C1914.52 213.073 1920.12 200.052 1920.12 182.344C1920.12 165.938 1915.1 153.698 1905.08 145.625C1895.05 137.552 1879.43 133.516 1858.2 133.516H1825.78V233.906Z" fill="#3182CE"/>
</svg>
